<svg xmlns="http://www.w3.org/2000/svg" width-non="221.1" height-non="59.75675675675676" viewBox="0 0 370 100" class="looka-1j8o68f"><defs id="SvgjsDefs1350"></defs><g id="SvgjsG1351" featurekey="5TMTKC-0" transform="matrix(29.824036715748324,0,0,29.824036715748324,-24.575006282219036,-24.545182629475928)" fill="#111111"><g xmlns="http://www.w3.org/2000/svg"><path d="M3.726,1.855C3.44,2.127,3.042,2.237,2.661,2.292c-0.34,0.05-0.695,0.071-0.999,0.203C1.344,2.634,1.144,2.864,1.16,3.22   c0.01,0.214,0.125,0.423,0.287,0.584C1.492,3.84,1.538,3.874,1.586,3.905C1.583,3.899,1.58,3.892,1.575,3.886   C1.382,3.621,1.232,2.862,2.242,2.697C2.445,2.664,2.648,2.63,2.85,2.584c0.178-0.041,0.496-0.141,0.531-0.16   c0.029-0.017-0.189,0.228-0.857,0.42C1.463,3.149,1.789,4.03,2.113,4.131C2.237,4.161,2.367,4.176,2.5,4.176   c0.926,0,1.677-0.75,1.677-1.676c0-0.333-0.097-0.643-0.264-0.903C3.868,1.695,3.805,1.779,3.726,1.855z"></path><path d="M0.824,2.5c0,0.184,0.03,0.359,0.084,0.525c0.02-0.182,0.082-0.354,0.198-0.5c0.21-0.267,0.536-0.392,0.875-0.459   C2.319,2,2.679,1.992,3.026,1.908c0.192-0.046,0.387-0.121,0.542-0.244C3.697,1.56,3.757,1.402,3.623,1.255   C3.574,1.211,3.522,1.169,3.468,1.131c0.098,0.201,0.022,0.5-0.773,0.578C2.491,1.73,2.288,1.749,2.087,1.777   C2.028,1.785,1.955,1.796,1.88,1.809c0,0,0.066-0.082,0.532-0.188c0.958-0.216,0.779-0.633,0.495-0.748   c-0.13-0.032-0.267-0.05-0.407-0.05C1.574,0.824,0.824,1.574,0.824,2.5z"></path></g></g><g id="SvgjsG1352" featurekey="7UBp9i-0" transform="matrix(5.091649852734035,0,0,5.091649852734035,119.49083428636024,-16.124236089368026)" fill="#111111"><path d="M3.08 9.66 l2.18 7.06 l0.04 0 l2.18 -7.06 l2.82 0 l-3.5 10.34 l-3.16 0 l-3.54 -10.34 l2.98 0 z M16.26 9.38 c0.97334 0 1.84 0.22664 2.6 0.67998 s1.3567 1.11 1.79 1.97 s0.65 1.85 0.65 2.97 c0 0.10666 -0.0066602 0.28 -0.02 0.52 l-7.46 0 c0.02666 0.82666 0.24332 1.47 0.64998 1.93 s1.03 0.69 1.87 0.69 c0.52 0 0.99666 -0.13 1.43 -0.39 s0.71 -0.57666 0.83 -0.95 l2.5 0 c-0.73334 2.32 -2.3466 3.48 -4.84 3.48 c-0.94666 -0.01334 -1.8233 -0.22 -2.63 -0.62 s-1.45 -1.0233 -1.93 -1.87 s-0.72 -1.83 -0.72 -2.95 c0 -1.0533 0.24334 -2.0134 0.73 -2.88 s1.1333 -1.5133 1.94 -1.94 s1.6767 -0.64 2.61 -0.64 z M18.439999999999998 13.719999999999999 c-0.13334 -0.77334 -0.38 -1.3333 -0.74 -1.68 s-0.87334 -0.52 -1.54 -0.52 c-0.69334 0 -1.24 0.19666 -1.64 0.59 s-0.63334 0.93 -0.7 1.61 l4.62 0 z M25.880000000000003 5.720000000000001 l0 14.28 l-2.84 0 l0 -14.28 l2.84 0 z M33.14 9.38 c1.6533 0 2.96 0.50334 3.92 1.51 s1.44 2.3234 1.44 3.95 c0 1.64 -0.49 2.9566 -1.47 3.95 s-2.2766 1.49 -3.89 1.49 c-1.64 0 -2.94 -0.50334 -3.9 -1.51 s-1.44 -2.3166 -1.44 -3.93 c0 -1.6667 0.49 -2.9934 1.47 -3.98 s2.27 -1.48 3.87 -1.48 z M30.640000000000004 14.84 c0 1.0533 0.21334 1.8666 0.64 2.44 s1.0467 0.86 1.86 0.86 c0.84 0 1.47 -0.29334 1.89 -0.88 s0.63 -1.3933 0.63 -2.42 c0 -1.0667 -0.21666 -1.8867 -0.65 -2.46 s-1.0633 -0.86 -1.89 -0.86 c-0.8 0 -1.4133 0.28666 -1.84 0.86 s-0.64 1.3933 -0.64 2.46 z M48.82000000000001 9.66 l0 2.14 l-5.38 6.06 l5.76 0 l0 2.14 l-9.5 0 l0 -2.14 l5.38 -6.06 l-4.98 0 l0 -2.14 l8.72 0 z"></path></g></svg>